<svg width="40" height="40" viewBox="0 0 40 40" fill="none" xmlns="http://www.w3.org/2000/svg">
<g clip-path="url(#clip0_89_3013)">
<path d="M26.6667 6.66663H13.3334C9.65152 6.66663 6.66675 9.65139 6.66675 13.3333V26.6666C6.66675 30.3485 9.65152 33.3333 13.3334 33.3333H26.6667C30.3486 33.3333 33.3334 30.3485 33.3334 26.6666V13.3333C33.3334 9.65139 30.3486 6.66663 26.6667 6.66663Z" stroke="#FF0000" stroke-width="2" stroke-linecap="round" stroke-linejoin="round"/>
<path d="M20 25C22.7614 25 25 22.7614 25 20C25 17.2386 22.7614 15 20 15C17.2386 15 15 17.2386 15 20C15 22.7614 17.2386 25 20 25Z" stroke="#FF0000" stroke-width="2" stroke-linecap="round" stroke-linejoin="round"/>
<path d="M27.5 12.5V12.501" stroke="#FF0000" stroke-width="2" stroke-linecap="round" stroke-linejoin="round"/>
</g>
<defs>
<clipPath id="clip0_89_3013">
<rect width="40" height="40" fill="white"/>
</clipPath>
</defs>
</svg>
