<svg id="Layer_1" data-name="Layer 1" xmlns="http://www.w3.org/2000/svg" viewBox="0 0 765.94 766.97"><defs><style>.cls-1{fill:#33405c;}.cls-2{fill:#ea1146;}</style></defs><path class="cls-1" d="M383,63.13c-176.92,0-320.35,143.43-320.35,320.35S206.05,703.83,383,703.83,703.32,560.41,703.32,383.48,559.9,63.13,383,63.13Zm0,588.24c-148,0-267.88-119.94-267.88-267.89S235,115.59,383,115.59,650.86,235.53,650.86,383.48,530.93,651.37,383,651.37Z"/><path class="cls-2" d="M425.67,406.4l10.84-22.92L500,360.72H447.35l23.22-52.65H442.7l-24.77,51.36H349.28l-23-53.68H297.67l23,52.92-90.84-2.34,96.25,17.55,14.2,31.74L301.8,426H349l31.74,73.55,37.42-77.94,94.71-3q.95-3.5,1.7-7.07Zm-67.23-28.91,26.78,4.78L365.15,394.4Zm24.13,56.36-5.42-11.73H388Zm15-28.49-28.13-1.55L401,393.49Zm28.13,1,10.84-22.92L500,360.72H447.35l23.22-52.65H442.7l-24.77,51.36H349.28l-23-53.68H297.67l23,52.92-90.84-2.34,96.25,17.55,14.2,31.74L301.8,426H349l31.74,73.55,37.42-77.94,94.71-3q.95-3.5,1.7-7.07Zm-67.23-28.91,26.78,4.78L365.15,394.4Zm24.13,56.36-5.42-11.73H388Zm15-28.49-28.13-1.55L401,393.49Zm28.13,1,10.84-22.92L500,360.72H447.35l23.22-52.65H442.7l-24.77,51.36H349.28l-23-53.68H297.67l23,52.92-90.84-2.34,96.25,17.55,14.2,31.74L301.8,426H349l31.74,73.55,37.42-77.94,94.71-3q.95-3.5,1.7-7.07Zm-67.23-28.91,26.78,4.78L365.15,394.4Zm24.13,56.36-5.42-11.73H388Zm15-28.49-28.13-1.55L401,393.49Z"/><path class="cls-1" d="M537.51,497h55.14A238.34,238.34,0,0,1,383,621.86c-131.65,0-238.37-106.73-238.37-238.38S251.32,145.11,383,145.11A238.37,238.37,0,0,1,597.64,279.72H544.22a191.55,191.55,0,0,0-161.25-88c-105.88,0-191.72,85.84-191.72,191.73S277.09,575.21,383,575.21A191.47,191.47,0,0,0,537.51,497Z"/><path class="cls-2" d="M553.15,383.48a170.19,170.19,0,0,1-320.6,79.63h41.94a134.6,134.6,0,0,0,238.4-44.45q.95-3.5,1.7-7.07l.3-1.45,0-.13a.5.5,0,0,0,0-.12q.18-.86.33-1.71c.11-.57.21-1.15.31-1.72,0-.22.07-.43.11-.65a.77.77,0,0,1,0-.15c0-.22.08-.45.11-.67s0-.17,0-.26l.06-.39c0-.08,0-.17,0-.25s0-.31.07-.46c.05-.32.09-.64.13-1s.11-.73.16-1.1c.09-.68.18-1.37.26-2.06s.13-1.12.19-1.69a.38.38,0,0,0,0-.1c0-.13,0-.26,0-.38s0,0,0-.07,0-.28,0-.42.06-.57.08-.86q.09-.89.15-1.77c0-.17,0-.35,0-.52,0-.39.07-.77.09-1.16l.09-1.54c0-.13,0-.27,0-.4s0-.21,0-.31c0-.47,0-.94.06-1.41s.05-1.2.06-1.8l0-1.37c0-.74,0-1.49,0-2.23A134.59,134.59,0,0,0,260.81,327H222.4a170.24,170.24,0,0,1,320.42-2h0A169.57,169.57,0,0,1,553.15,383.48Z"/></svg>